<svg width="1014" height="1024" viewBox="0 0 1014 1024" fill="none" xmlns="http://www.w3.org/2000/svg">
<path d="M128 771.181C128 782.341 134.194 792.578 144.08 797.756L576 1024V490.667L128 256V771.181Z" fill="#A47623"/>
<path d="M640 1024L816.569 925.906C826.093 920.615 832 910.576 832 899.681V576L768 608L640 544V1024Z" fill="#A47623"/>
<path d="M138.667 266.667L362.667 149.333L224 10.6667L0 128L138.667 266.667Z" fill="#A47623"/>
<path d="M960 234.667L512 0L362.667 149.333L810.667 384L960 234.667Z" fill="#A47623"/>
<path d="M810.667 384L640 490.667H789.333L1013.33 384H810.667Z" fill="#A47623"/>
</svg>
